<svg xmlns="http://www.w3.org/2000/svg" aria-hidden="true" fill="currentColor" width="135" height="765" viewBox="0 0 135 765">
  <path id="katakana-profile" d="M 66.205566 53.207462 C 68.975769 50.528759 71.530701 48.134712 73.993256 45.649124 C 79.925507 39.661331 79.912537 39.635109 87.543549 43.470531 C 89.010742 44.207973 90.427307 45.046127 93.686615 46.838161 C 89.66275 50.204056 85.932373 52.716011 82.970184 55.93494 C 77.601166 61.769356 72.463562 67.853935 67.683533 74.177429 C 65.31308 77.313324 65.812103 80.288452 69.070648 83.683121 C 79.110657 94.142471 85.870026 106.797699 91.015259 120.291328 C 91.4729 121.491531 91.329834 123.243431 90.79425 124.438072 C 89.302032 127.766685 87.45636 130.936813 84.994812 135.600937 C 75.027252 106.535049 56.259644 86.552704 29.386688 72.296356 C 29.386688 76.184746 29.39209 79.080528 29.385681 81.976273 C 29.368347 89.807594 30.008972 97.716599 29.103394 105.444168 C 28.448944 111.028458 25.737396 116.371666 23.943268 121.822395 C 23.323151 121.658493 22.703033 121.494598 22.082916 121.330704 C 22.082916 108.421982 22.11026 95.51313 22.054077 82.604652 C 22.04541 80.620155 21.994812 78.522774 21.376312 76.674065 C 19.022461 69.638245 22.288849 64.018921 25.892883 58.60902 C 26.573273 57.587749 29.243774 56.910069 30.462738 57.400139 C 35.681549 59.498322 40.761658 61.974911 45.767029 64.556503 C 48.234528 65.82917 50.429504 67.630257 52.341064 68.91819 C 57.02179 63.597481 61.485046 58.523983 66.205566 53.207462 z M 30.956848 520.736938 C 23.951447 518.245178 17.33075 515.860901 9.777191 513.140747 C 13.667877 508.273865 16.537903 504.683685 18.95343 501.662109 C 30.748657 505.99939 41.927612 510.162628 53.168701 514.150757 C 54.142792 514.496399 55.768402 514.014099 56.673187 513.348206 C 58.944519 511.676453 61.396729 509.985168 63.022156 507.752594 C 67.313202 501.858734 73.74472 502.178619 81.119965 500.50769 C 74.426697 507.358307 68.735809 513.182983 63.21759 518.830872 C 69.709656 524.370239 76.58963 528.318481 80.714874 534.199158 C 87.338623 543.641602 92.174652 554.343811 97.648132 564.576782 C 98.09552 565.413208 98.059692 567.032166 97.530212 567.776855 C 95.158295 571.112854 92.526245 574.263916 89.593811 577.981567 C 80.890869 560.361084 74.787933 541.745422 54.462555 532.331055 C 51.170654 539.463989 47.912811 546.523132 44.145386 554.686401 C 41.182709 555.304749 36.67865 556.244751 31.788696 557.265381 C 32.320465 544.854309 41.266663 537.047607 46.399963 526.697144 C 41.18692 524.671021 36.264252 522.75769 30.956848 520.736938 z M 55.042999 393.002197 C 74.713776 410.049774 89.203461 430.057068 96.118408 455.161194 C 97.194397 459.067474 96.666229 461.366028 93.191345 463.303314 C 90.762299 464.657562 88.561584 466.421448 85.953796 468.211853 C 75.684937 434.380341 57.834137 407.060913 25.693054 391.170258 C 35.675476 382.401031 36.54538 381.296326 49.469025 389.043457 C 51.316742 390.151062 52.999664 391.5336 55.042999 393.002197 z M 57.455017 231.791183 C 56.522705 239.653915 53.99707 241.117355 43.130371 240.810059 C 43.130371 214.091919 43.130371 187.391861 43.130371 160.005783 C 48.175232 159.094009 52.747131 158.267731 57.502655 157.408264 C 57.502655 182.602951 57.502655 206.983749 57.455017 231.791183 z M 32.574097 325.186829 C 34.66806 321.628143 36.592957 318.372101 38.920959 314.434204 C 41.04364 320.825684 46.126984 322.523132 50.83197 324.795441 C 58.00528 328.259888 65.130737 331.828278 72.201416 335.497253 C 74.249817 336.560181 76.226807 337.917358 77.92038 339.481842 C 88.810944 349.542419 88.773651 348.654297 79.209808 361.500366 C 70.958771 350.129211 59.190491 343.835419 46.635345 338.628052 C 43.116302 337.168488 39.531372 335.680664 36.367645 333.608795 C 33.689301 331.854767 30.768097 329.62149 32.574097 325.186829 z M 73.552307 280.439667 C 65.268402 284.782196 57.247864 288.83371 49.344208 293.101654 C 44.184143 295.888 39.028992 298.844055 38.292297 306.608978 C 34.501526 303.699249 30.613739 301.560974 28.054443 298.360352 C 26.932281 296.95697 27.625214 292.577087 29.07251 290.973602 C 31.774536 287.980042 35.448608 285.702057 39.03894 283.702026 C 50.373138 277.388214 61.918945 271.453552 73.235352 265.10907 C 75.980103 263.570251 77.898529 263.424133 80.242676 265.556519 C 82.677368 267.771301 85.392303 269.677948 88.570343 272.180542 C 83.316284 275.060333 78.59079 277.650421 73.552307 280.439667 z M 40.473358 443.584473 C 41.852692 444.472015 42.915985 445.172394 44.412842 446.158356 C 39.311615 453.51236 34.421875 460.561523 29.020233 468.348633 C 25.27298 466.455414 21.211365 464.403351 16.338348 461.941376 C 18.323456 458.698395 20.02182 455.76532 21.881561 452.938385 C 23.249207 450.859436 24.829254 448.920258 26.312469 446.917175 C 31.830017 439.465637 31.829712 439.465393 40.473358 443.584473 z M 6.325073 48.61837 C 4.197937 47.377434 2.40683 46.282856 0.597992 45.177429 C 5.638306 38.607067 14.314972 34.344818 19.329071 41.700333 C 15.098541 44.059517 10.879791 46.412125 6.325073 48.61837 z M 21.616852 271.40332 C 18.274109 273.406982 15.332642 275.940277 11.971588 276.766205 C 9.424622 277.392181 6.342804 275.841675 2.801544 275.116974 C 10.81546 265.940979 18.095825 264.384033 21.616852 271.40332 z M 22.406891 283.072937 C 22.27298 284.002808 22.047272 285.039307 21.406403 285.507233 C 18.52475 287.611267 15.525208 289.553833 11.987885 291.947296 C 10.271332 290.951996 7.911713 289.583801 5.533783 288.205017 C 10.338898 280.72287 15.944855 279.068359 22.406891 283.072937 z M 8.259735 53.108215 C 16.428406 47.647926 16.96701 47.63763 23.389771 52.723557 C 19.80484 55.188713 16.24292 57.638035 12.08194 60.499306 C 10.372528 59.572506 7.954742 58.261627 5.174835 56.754417 C 6.35968 55.305145 7.174347 54.308708 8.259735 53.108215 z
" />
</svg>
