<svg xmlns="http://www.w3.org/2000/svg" aria-hidden="true" fill="currentColor" width="750" height="137" viewBox="0 0 750 137">
  <path id="katakana-project" d="M 124.1 11.5 L 168.6 11.5 L 168.6 29.1 A 5.412 5.412 0 0 0 168.666 29.984 Q 168.742 30.44 168.905 30.776 A 1.573 1.573 0 0 0 170.2 31.7 L 167.7 37.5 A 25.867 25.867 0 0 0 163.926 36.102 Q 161.413 35.4 159.1 35.4 L 126.1 35.4 Q 123.496 35.4 123.496 37.725 A 4.389 4.389 0 0 0 123.5 37.9 L 123.5 53.7 L 154.7 53.7 A 33.922 33.922 0 0 0 159.077 53.383 Q 164.803 52.631 173.1 50.1 L 174.4 51.8 A 103.961 103.961 0 0 1 168.048 54.564 Q 161.744 57.042 157.21 57.622 A 20.602 20.602 0 0 1 154.6 57.8 L 116.1 57.8 L 116.1 39.1 A 23.121 23.121 0 0 0 114.047 29.658 A 27.049 27.049 0 0 0 113.6 28.7 Q 120.358 30.92 123.294 31.09 A 8.811 8.811 0 0 0 123.5 31.1 L 161.8 31.1 L 161.8 15.6 L 126.3 15.6 Q 122.95 15.6 117.767 17.432 A 55.682 55.682 0 0 0 117.3 17.6 L 114.6 9.3 Q 118.891 11 122.461 11.389 A 19.382 19.382 0 0 0 124.1 11.5 Z M 363.4 19.9 L 323.5 19.9 A 3.45 3.45 0 0 0 322.496 20.033 Q 321.391 20.37 321.102 21.554 A 4 4 0 0 0 321 22.5 L 321 51.5 L 329 51.5 A 301.323 301.323 0 0 0 345.215 51.09 Q 353.531 50.64 360.605 49.699 A 120.97 120.97 0 0 0 373.6 47.3 L 374.8 49.7 Q 365.383 52.303 357.666 53.646 A 115.39 115.39 0 0 1 353.1 54.35 A 121.163 121.163 0 0 1 346.023 55.062 Q 342.352 55.331 338.121 55.465 A 284.536 284.536 0 0 1 329.1 55.6 L 313.6 55.6 L 313.6 23.7 Q 313.6 18.4 311 13.3 Q 317.849 15.551 320.869 15.599 A 8.168 8.168 0 0 0 321 15.6 L 363.2 15.6 A 80.961 80.961 0 0 0 367.086 15.513 Q 370.841 15.332 373.398 14.774 A 18.974 18.974 0 0 0 374.5 14.5 L 372 22.1 Q 368.285 20.397 365.169 20.012 A 14.43 14.43 0 0 0 363.4 19.9 Z M 233.4 19.5 L 226.3 19.5 Q 226.1 24.4 224.3 30.3 A 61.157 61.157 0 0 0 227.875 34.819 Q 230.488 37.802 233.1 39.85 A 43.669 43.669 0 0 0 236.822 42.445 Q 240.275 44.613 244.9 46.8 L 241.2 53.5 Q 231.542 47.627 226.313 41.115 A 29.768 29.768 0 0 1 222 34 Q 219.969 38.739 215.253 43.37 A 48.15 48.15 0 0 1 213.45 45.05 A 36.254 36.254 0 0 1 205.917 50.252 A 31.001 31.001 0 0 1 200.2 52.5 L 195.9 46.2 Q 217.622 42.362 220.394 24.748 A 35.039 35.039 0 0 0 220.8 19.3 L 211.3 19.3 Q 207.2 19.5 203.9 21.9 L 199 12.9 A 23.641 23.641 0 0 0 203.673 14.317 Q 207.08 15 211.3 15 L 233 15 Q 239.658 15 243.564 14.109 A 19.522 19.522 0 0 0 244.4 13.9 L 242 21.7 Q 238.285 19.997 235.169 19.612 A 14.43 14.43 0 0 0 233.4 19.5 Z M 114.2 78.3 L 139.5 78.3 L 139.5 56.6 L 147.3 56.6 L 147.3 78.3 L 173.4 78.3 A 73.829 73.829 0 0 0 177.494 78.194 Q 181.431 77.975 184.077 77.3 A 17.954 17.954 0 0 0 184.8 77.1 L 182.4 84.9 A 24.071 24.071 0 0 0 178.289 83.592 Q 176.158 83.104 173.643 82.851 A 55.26 55.26 0 0 0 169.5 82.6 L 114.2 82.6 A 8.953 8.953 0 0 0 107.848 85.66 A 12.359 12.359 0 0 0 107.3 86.3 L 99.9 75.9 Q 106.8 78.3 114.2 78.3 Z M 69.1 80.5 L 14.3 80.5 A 8.775 8.775 0 0 0 8.167 83.404 A 12.335 12.335 0 0 0 7.4 84.3 L 0 73.9 Q 6.8 76.2 14.3 76.2 L 73 76.2 Q 79.658 76.2 83.564 75.309 A 19.522 19.522 0 0 0 84.4 75.1 L 82 82.9 A 23.22 23.22 0 0 0 77.889 81.531 Q 75.758 81.021 73.243 80.759 A 52.619 52.619 0 0 0 69.1 80.5 Z M 369.1 80.5 L 314.3 80.5 A 8.775 8.775 0 0 0 308.167 83.404 A 12.335 12.335 0 0 0 307.4 84.3 L 300 73.9 Q 306.8 76.2 314.3 76.2 L 373 76.2 Q 379.658 76.2 383.564 75.309 A 19.522 19.522 0 0 0 384.4 75.1 L 382 82.9 A 23.22 23.22 0 0 0 377.889 81.531 Q 375.758 81.021 373.243 80.759 A 52.619 52.619 0 0 0 369.1 80.5 Z M 225.3 62.8 L 277.7 62.8 A 70.743 70.743 0 0 1 277.386 68.823 Q 277.076 71.999 276.467 74.734 A 36.751 36.751 0 0 1 275.8 77.3 Q 274.289 82.338 271.156 88.362 A 100.386 100.386 0 0 1 269.9 90.7 L 267.4 90.1 Q 269.771 78.881 269.98 69.659 A 77.843 77.843 0 0 0 270 67.9 L 229.4 67.9 A 19.323 19.323 0 0 0 225.977 68.184 Q 224.081 68.526 222.581 69.279 A 9.473 9.473 0 0 0 220.6 70.6 L 214.8 61.2 A 20.746 20.746 0 0 0 218.432 62.221 Q 221.45 62.8 225.3 62.8 Z M 12.1 57.5 L 7.2 48.6 A 23.641 23.641 0 0 0 11.873 50.017 Q 15.28 50.7 19.5 50.7 L 68.6 50.7 A 74.227 74.227 0 0 0 72.486 50.605 Q 76.241 50.408 78.798 49.799 A 17.683 17.683 0 0 0 79.9 49.5 L 77.3 57.1 A 30.54 30.54 0 0 0 73.992 55.862 Q 71.17 55 68.8 55 L 19.5 55 A 12.046 12.046 0 0 0 14.084 56.32 A 15.847 15.847 0 0 0 12.1 57.5 Z M 238 38.7 L 238 34.4 L 254.4 34.4 L 254.4 23.7 Q 254.4 18.204 252.779 10.878 A 111.287 111.287 0 0 0 251.3 5 L 261.9 13.8 L 261.9 59.2 L 254.4 59.2 L 254.4 38.7 L 238 38.7 Z M 15.8 18.1 L 10.9 9.1 A 24.487 24.487 0 0 0 15.573 10.535 Q 17.888 11.016 20.58 11.197 A 49.129 49.129 0 0 0 23.2 11.3 L 62.7 11.3 A 74.227 74.227 0 0 0 66.586 11.205 Q 70.341 11.008 72.898 10.399 A 17.683 17.683 0 0 0 74 10.1 L 71.5 17.7 A 32.273 32.273 0 0 0 68.273 16.504 Q 66.571 15.982 65.041 15.761 A 15.011 15.011 0 0 0 62.9 15.6 L 23.2 15.6 Q 19.1 15.8 15.8 18.1 Z M 277.6 61.2 L 270.2 61.2 L 270.2 18.7 Q 270.2 11.3 267 0 L 277.6 8.8 L 277.6 61.2 Z M 319.1 36.7 L 319.1 32.4 L 358.3 32.4 A 80.961 80.961 0 0 0 362.186 32.313 Q 365.941 32.132 368.498 31.574 A 18.974 18.974 0 0 0 369.6 31.3 L 367.1 38.9 Q 363.385 37.197 360.269 36.812 A 14.43 14.43 0 0 0 358.5 36.7 L 319.1 36.7 Z M 61.9 25.4 L 54.9 21.1 Q 51.448 27.683 49.349 41.615 A 195.158 195.158 0 0 0 48.4 48.9 L 50.4 48.9 A 71.834 71.834 0 0 1 59.483 28.927 A 83.217 83.217 0 0 1 61.9 25.4 Z M 37 47.2 L 35 47.2 A 213.367 213.367 0 0 1 29.337 35.804 Q 26.827 30.328 24.948 25.272 A 129.292 129.292 0 0 1 24.7 24.6 L 31.9 21.1 A 236.223 236.223 0 0 0 33.257 30.739 Q 34.762 39.945 36.719 46.309 A 67.024 67.024 0 0 0 37 47.2 z" />
</svg>
